<svg width="433" height="38" viewBox="0 0 433 38" fill="none" xmlns="http://www.w3.org/2000/svg">
<rect width="433" height="38" rx="16" fill="#55FF85"/>
<path d="M156.952 11.915C158.851 11.8447 160.392 12.3984 161.575 13.5762C162.765 14.7539 163.359 16.2275 163.359 17.9971C163.359 19.5088 162.917 20.8389 162.032 21.9873C160.86 23.5107 159.205 24.2725 157.066 24.2725C154.922 24.2725 153.264 23.5459 152.092 22.0928C151.166 20.9443 150.703 19.582 150.703 18.0059C150.703 16.2363 151.304 14.7627 152.505 13.585C153.712 12.4014 155.194 11.8447 156.952 11.915ZM157.058 12.4775C155.968 12.4775 155.139 13.0342 154.57 14.1475C154.107 15.0615 153.876 16.374 153.876 18.085C153.876 20.1182 154.233 21.6211 154.948 22.5938C155.446 23.2734 156.144 23.6133 157.04 23.6133C157.644 23.6133 158.147 23.4668 158.552 23.1738C159.067 22.7988 159.469 22.2012 159.756 21.3809C160.043 20.5547 160.187 19.4795 160.187 18.1553C160.187 16.5791 160.04 15.4014 159.747 14.6221C159.454 13.8369 159.079 13.2832 158.622 12.9609C158.171 12.6387 157.649 12.4775 157.058 12.4775ZM166.277 24V23.6748C166.629 23.6748 166.869 23.584 166.998 23.4023C167.133 23.2207 167.2 22.8604 167.2 22.3213V16.3359H166.383C165.809 16.3359 165.41 16.4385 165.188 16.6436C164.965 16.8486 164.789 17.2764 164.66 17.9268H164.335V15.7822H172.526V17.9268H172.201C172.096 17.3408 171.94 16.9307 171.735 16.6963C171.53 16.4561 171.117 16.3359 170.496 16.3359H169.661V22.3213C169.661 22.8779 169.726 23.2412 169.854 23.4111C169.989 23.5811 170.232 23.6689 170.584 23.6748V24H166.277ZM182.599 15.7822V16.1074C182.212 16.1484 181.96 16.2539 181.843 16.4238C181.726 16.5879 181.667 16.9395 181.667 17.4785V22.374C181.667 22.8896 181.731 23.2324 181.86 23.4023C181.989 23.5723 182.235 23.6631 182.599 23.6748V24H178.415V23.6748C178.778 23.6748 179.001 23.5781 179.083 23.3848C179.165 23.1914 179.206 22.875 179.206 22.4355V16.3359H176.851V22.374C176.851 22.9131 176.903 23.2646 177.009 23.4287C177.114 23.5928 177.328 23.6748 177.65 23.6748V24H173.467V23.6748C173.824 23.6689 174.067 23.5781 174.196 23.4023C174.325 23.2266 174.39 22.8516 174.39 22.2773V17.3643C174.39 16.8252 174.316 16.4824 174.17 16.3359C174.029 16.1836 173.795 16.1074 173.467 16.1074V15.7822H182.599ZM187.011 23.165V26.2236C187.011 26.6455 187.043 26.9326 187.107 27.085C187.178 27.2373 187.283 27.3486 187.424 27.4189C187.564 27.4893 187.84 27.5244 188.25 27.5244V27.8496H183.565V27.5244C183.929 27.5127 184.198 27.4102 184.374 27.2168C184.491 27.082 184.55 26.7334 184.55 26.1709V17.4961C184.55 16.916 184.482 16.5469 184.348 16.3887C184.213 16.2246 183.952 16.1309 183.565 16.1074V15.7822H187.011V16.8633C187.298 16.4414 187.591 16.1367 187.89 15.9492C188.317 15.6738 188.783 15.5361 189.287 15.5361C189.891 15.5361 190.438 15.7266 190.931 16.1074C191.429 16.4883 191.807 17.0156 192.064 17.6895C192.322 18.3574 192.451 19.0781 192.451 19.8516C192.451 20.6836 192.316 21.4453 192.047 22.1367C191.783 22.8223 191.396 23.3467 190.887 23.71C190.383 24.0674 189.82 24.2461 189.199 24.2461C188.748 24.2461 188.326 24.1465 187.934 23.9473C187.641 23.7949 187.333 23.5342 187.011 23.165ZM187.011 22.2773C187.515 22.9922 188.054 23.3496 188.628 23.3496C188.944 23.3496 189.205 23.1826 189.41 22.8486C189.715 22.3564 189.867 21.4189 189.867 20.0361C189.867 18.6182 189.7 17.6484 189.366 17.127C189.144 16.7812 188.845 16.6084 188.47 16.6084C187.878 16.6084 187.392 17.0361 187.011 17.8916V22.2773ZM198.384 22.7871C197.382 23.6719 196.482 24.1143 195.686 24.1143C195.217 24.1143 194.827 23.9619 194.517 23.6572C194.206 23.3467 194.051 22.96 194.051 22.4971C194.051 21.8701 194.32 21.3076 194.859 20.8096C195.398 20.3057 196.573 19.6377 198.384 18.8057V17.9795C198.384 17.3584 198.349 16.9688 198.278 16.8105C198.214 16.6465 198.088 16.5059 197.9 16.3887C197.713 16.2656 197.502 16.2041 197.268 16.2041C196.887 16.2041 196.573 16.2891 196.327 16.459C196.175 16.5645 196.099 16.6875 196.099 16.8281C196.099 16.9512 196.181 17.1035 196.345 17.2852C196.567 17.5371 196.679 17.7803 196.679 18.0146C196.679 18.3018 196.57 18.5479 196.354 18.7529C196.143 18.9521 195.864 19.0518 195.519 19.0518C195.149 19.0518 194.839 18.9404 194.587 18.7178C194.341 18.4951 194.218 18.2344 194.218 17.9355C194.218 17.5137 194.385 17.1123 194.719 16.7314C195.053 16.3447 195.519 16.0488 196.116 15.8438C196.714 15.6387 197.335 15.5361 197.979 15.5361C198.759 15.5361 199.374 15.7031 199.825 16.0371C200.282 16.3652 200.578 16.7227 200.713 17.1094C200.795 17.3555 200.836 17.9209 200.836 18.8057V21.9961C200.836 22.3711 200.851 22.6084 200.88 22.708C200.909 22.8018 200.953 22.8721 201.012 22.9189C201.07 22.9658 201.138 22.9893 201.214 22.9893C201.366 22.9893 201.521 22.8809 201.68 22.6641L201.943 22.875C201.65 23.3086 201.346 23.625 201.029 23.8242C200.719 24.0176 200.364 24.1143 199.966 24.1143C199.497 24.1143 199.131 24.0059 198.867 23.7891C198.604 23.5664 198.442 23.2324 198.384 22.7871ZM198.384 22.1455V19.3945C197.675 19.8105 197.147 20.2559 196.802 20.7305C196.573 21.0469 196.459 21.3662 196.459 21.6885C196.459 21.958 196.556 22.1953 196.749 22.4004C196.896 22.5586 197.101 22.6377 197.364 22.6377C197.657 22.6377 197.997 22.4736 198.384 22.1455ZM202.884 15.7822H207.419C208.368 15.7822 209.145 15.9551 209.748 16.3008C210.352 16.6406 210.653 17.1475 210.653 17.8213C210.653 18.7295 210.026 19.3418 208.772 19.6582C210.466 19.8574 211.312 20.5664 211.312 21.7852C211.312 22.5234 210.97 23.0771 210.284 23.4463C209.599 23.8154 208.658 24 207.463 24H202.884V23.6748C203.288 23.6338 203.537 23.54 203.631 23.3936C203.73 23.2471 203.78 22.96 203.78 22.5322V17.6367C203.78 16.9746 203.725 16.5615 203.613 16.3975C203.508 16.2334 203.265 16.1367 202.884 16.1074V15.7822ZM206.364 19.4473C207.759 19.4062 208.456 18.8877 208.456 17.8916C208.456 16.8721 207.759 16.3535 206.364 16.3359V19.4473ZM206.364 20.001V22.6992C206.364 22.9746 206.408 23.1709 206.496 23.2881C206.584 23.3994 206.774 23.4551 207.067 23.4551C207.56 23.4551 207.979 23.2822 208.324 22.9365C208.67 22.5908 208.843 22.1514 208.843 21.6182C208.843 21.0557 208.649 20.6455 208.263 20.3877C207.882 20.1299 207.249 20.001 206.364 20.001ZM217.526 24V23.6748C218.054 23.6748 218.317 23.2822 218.317 22.4971V18.4717L215.962 22.4971C215.968 23.2646 216.234 23.6572 216.762 23.6748V24H212.578V23.6748C212.912 23.6748 213.149 23.5811 213.29 23.3936C213.431 23.2061 213.501 22.8779 213.501 22.4092V17.3379C213.501 16.5176 213.193 16.1074 212.578 16.1074V15.7822H216.762V16.1074C216.457 16.1191 216.246 16.207 216.129 16.3711C216.018 16.5352 215.962 16.8574 215.962 17.3379V21.3457L218.317 17.2676C218.312 16.834 218.247 16.5322 218.124 16.3623C218.001 16.1924 217.802 16.1074 217.526 16.1074V15.7822H221.71V16.1074C221.394 16.1133 221.159 16.1924 221.007 16.3447C220.854 16.4971 220.778 16.79 220.778 17.2236V22.4531C220.778 22.9395 220.846 23.2646 220.98 23.4287C221.121 23.5928 221.364 23.6748 221.71 23.6748V24H217.526ZM224.602 24V23.6748C224.953 23.6748 225.193 23.584 225.322 23.4023C225.457 23.2207 225.524 22.8604 225.524 22.3213V16.3359H224.707C224.133 16.3359 223.734 16.4385 223.512 16.6436C223.289 16.8486 223.113 17.2764 222.984 17.9268H222.659V15.7822H230.851V17.9268H230.525C230.42 17.3408 230.265 16.9307 230.06 16.6963C229.854 16.4561 229.441 16.3359 228.82 16.3359H227.985V22.3213C227.985 22.8779 228.05 23.2412 228.179 23.4111C228.313 23.5811 228.557 23.6689 228.908 23.6748V24H224.602ZM231.853 24V23.6748C232.192 23.6279 232.421 23.5166 232.538 23.3408C232.661 23.1592 232.723 22.8281 232.723 22.3477V17.3818C232.723 16.9365 232.658 16.626 232.529 16.4502C232.406 16.2744 232.181 16.1602 231.853 16.1074V15.7822H236.054V16.1074C235.702 16.1602 235.468 16.2832 235.351 16.4766C235.239 16.6641 235.184 17.0068 235.184 17.5049V19.4648H235.816C237.246 19.4648 238.324 19.6699 239.051 20.0801C239.777 20.4844 240.141 21.0469 240.141 21.7676C240.141 22.4473 239.818 22.9893 239.174 23.3936C238.529 23.7979 237.574 24 236.309 24H231.853ZM235.184 20.0186V22.5762C235.184 22.9746 235.248 23.2207 235.377 23.3145C235.512 23.4082 235.673 23.4551 235.86 23.4551C236.317 23.4551 236.713 23.2998 237.047 22.9893C237.387 22.6729 237.557 22.248 237.557 21.7148C237.557 20.584 236.766 20.0186 235.184 20.0186ZM249.589 19.5791C250.608 19.8369 251.256 20.168 251.531 20.5723C251.807 20.9707 251.944 21.3896 251.944 21.8291C251.944 22.5088 251.657 23.083 251.083 23.5518C250.509 24.0146 249.686 24.2461 248.613 24.2461C247.148 24.2461 246.091 23.6777 245.44 22.541L245.713 22.3828C246.387 23.0449 247.072 23.376 247.77 23.376C248.291 23.376 248.707 23.2178 249.018 22.9014C249.328 22.5791 249.483 22.1484 249.483 21.6094C249.483 20.5898 248.877 20.0449 247.664 19.9746V19.4209C248.725 19.4209 249.255 18.8789 249.255 17.7949C249.255 17.291 249.132 16.8926 248.886 16.5996C248.646 16.3066 248.317 16.1602 247.901 16.1602C247.017 16.1602 246.451 16.8076 246.205 18.1025H245.871L245.994 15.5361H246.328C246.428 15.7705 246.551 15.8877 246.697 15.8877C246.756 15.8877 246.899 15.8584 247.128 15.7998C247.767 15.624 248.323 15.5361 248.798 15.5361C249.601 15.5361 250.254 15.7207 250.758 16.0898C251.268 16.459 251.522 16.957 251.522 17.584C251.522 18.5859 250.878 19.251 249.589 19.5791ZM257.587 22.7871C256.585 23.6719 255.686 24.1143 254.889 24.1143C254.42 24.1143 254.03 23.9619 253.72 23.6572C253.409 23.3467 253.254 22.96 253.254 22.4971C253.254 21.8701 253.523 21.3076 254.062 20.8096C254.602 20.3057 255.776 19.6377 257.587 18.8057V17.9795C257.587 17.3584 257.552 16.9688 257.481 16.8105C257.417 16.6465 257.291 16.5059 257.104 16.3887C256.916 16.2656 256.705 16.2041 256.471 16.2041C256.09 16.2041 255.776 16.2891 255.53 16.459C255.378 16.5645 255.302 16.6875 255.302 16.8281C255.302 16.9512 255.384 17.1035 255.548 17.2852C255.771 17.5371 255.882 17.7803 255.882 18.0146C255.882 18.3018 255.773 18.5479 255.557 18.7529C255.346 18.9521 255.067 19.0518 254.722 19.0518C254.353 19.0518 254.042 18.9404 253.79 18.7178C253.544 18.4951 253.421 18.2344 253.421 17.9355C253.421 17.5137 253.588 17.1123 253.922 16.7314C254.256 16.3447 254.722 16.0488 255.319 15.8438C255.917 15.6387 256.538 15.5361 257.183 15.5361C257.962 15.5361 258.577 15.7031 259.028 16.0371C259.485 16.3652 259.781 16.7227 259.916 17.1094C259.998 17.3555 260.039 17.9209 260.039 18.8057V21.9961C260.039 22.3711 260.054 22.6084 260.083 22.708C260.112 22.8018 260.156 22.8721 260.215 22.9189C260.273 22.9658 260.341 22.9893 260.417 22.9893C260.569 22.9893 260.725 22.8809 260.883 22.6641L261.146 22.875C260.854 23.3086 260.549 23.625 260.232 23.8242C259.922 24.0176 259.567 24.1143 259.169 24.1143C258.7 24.1143 258.334 24.0059 258.07 23.7891C257.807 23.5664 257.646 23.2324 257.587 22.7871ZM257.587 22.1455V19.3945C256.878 19.8105 256.351 20.2559 256.005 20.7305C255.776 21.0469 255.662 21.3662 255.662 21.6885C255.662 21.958 255.759 22.1953 255.952 22.4004C256.099 22.5586 256.304 22.6377 256.567 22.6377C256.86 22.6377 257.2 22.4736 257.587 22.1455ZM262.069 15.7822H266.253V16.1074C265.937 16.1191 265.723 16.207 265.611 16.3711C265.506 16.5352 265.453 16.8838 265.453 17.417V19.4385C266.109 19.4385 266.558 19.333 266.798 19.1221C267.044 18.9053 267.278 18.4951 267.501 17.8916C267.812 17.042 268.125 16.4561 268.441 16.1338C268.764 15.8057 269.2 15.6416 269.751 15.6416C270.214 15.6416 270.618 15.7734 270.964 16.0371C271.31 16.2949 271.482 16.6377 271.482 17.0654C271.482 17.3936 271.38 17.6748 271.175 17.9092C270.976 18.1377 270.715 18.252 270.393 18.252C269.73 18.252 269.394 17.9121 269.382 17.2324C269.376 16.7578 269.273 16.5205 269.074 16.5205C268.775 16.5205 268.474 16.9219 268.169 17.7246C267.923 18.3809 267.753 18.7939 267.659 18.9639C267.565 19.1338 267.404 19.3213 267.176 19.5264C267.768 19.6436 268.195 19.8018 268.459 20.001C268.729 20.2002 269.08 20.6543 269.514 21.3633L270.296 22.6201C270.706 23.2881 271.137 23.6396 271.588 23.6748V24H268.424L265.98 20.001H265.453V22.2861C265.453 22.8018 265.515 23.1592 265.638 23.3584C265.761 23.5518 265.966 23.6572 266.253 23.6748V24H262.069V23.6748C262.345 23.6689 262.567 23.5957 262.737 23.4551C262.907 23.3145 262.992 22.957 262.992 22.3828V17.5312C262.992 16.9863 262.925 16.6143 262.79 16.415C262.661 16.21 262.421 16.1074 262.069 16.1074V15.7822ZM276.677 22.7871C275.675 23.6719 274.775 24.1143 273.979 24.1143C273.51 24.1143 273.12 23.9619 272.81 23.6572C272.499 23.3467 272.344 22.96 272.344 22.4971C272.344 21.8701 272.613 21.3076 273.152 20.8096C273.691 20.3057 274.866 19.6377 276.677 18.8057V17.9795C276.677 17.3584 276.642 16.9688 276.571 16.8105C276.507 16.6465 276.381 16.5059 276.193 16.3887C276.006 16.2656 275.795 16.2041 275.561 16.2041C275.18 16.2041 274.866 16.2891 274.62 16.459C274.468 16.5645 274.392 16.6875 274.392 16.8281C274.392 16.9512 274.474 17.1035 274.638 17.2852C274.86 17.5371 274.972 17.7803 274.972 18.0146C274.972 18.3018 274.863 18.5479 274.646 18.7529C274.436 18.9521 274.157 19.0518 273.812 19.0518C273.442 19.0518 273.132 18.9404 272.88 18.7178C272.634 18.4951 272.511 18.2344 272.511 17.9355C272.511 17.5137 272.678 17.1123 273.012 16.7314C273.346 16.3447 273.812 16.0488 274.409 15.8438C275.007 15.6387 275.628 15.5361 276.272 15.5361C277.052 15.5361 277.667 15.7031 278.118 16.0371C278.575 16.3652 278.871 16.7227 279.006 17.1094C279.088 17.3555 279.129 17.9209 279.129 18.8057V21.9961C279.129 22.3711 279.144 22.6084 279.173 22.708C279.202 22.8018 279.246 22.8721 279.305 22.9189C279.363 22.9658 279.431 22.9893 279.507 22.9893C279.659 22.9893 279.814 22.8809 279.973 22.6641L280.236 22.875C279.943 23.3086 279.639 23.625 279.322 23.8242C279.012 24.0176 278.657 24.1143 278.259 24.1143C277.79 24.1143 277.424 24.0059 277.16 23.7891C276.896 23.5664 276.735 23.2324 276.677 22.7871ZM276.677 22.1455V19.3945C275.968 19.8105 275.44 20.2559 275.095 20.7305C274.866 21.0469 274.752 21.3662 274.752 21.6885C274.752 21.958 274.849 22.1953 275.042 22.4004C275.188 22.5586 275.394 22.6377 275.657 22.6377C275.95 22.6377 276.29 22.4736 276.677 22.1455ZM284.921 19.5791C285.94 19.8369 286.588 20.168 286.863 20.5723C287.139 20.9707 287.276 21.3896 287.276 21.8291C287.276 22.5088 286.989 23.083 286.415 23.5518C285.841 24.0146 285.018 24.2461 283.945 24.2461C282.48 24.2461 281.423 23.6777 280.772 22.541L281.045 22.3828C281.719 23.0449 282.404 23.376 283.102 23.376C283.623 23.376 284.039 23.2178 284.35 22.9014C284.66 22.5791 284.815 22.1484 284.815 21.6094C284.815 20.5898 284.209 20.0449 282.996 19.9746V19.4209C284.057 19.4209 284.587 18.8789 284.587 17.7949C284.587 17.291 284.464 16.8926 284.218 16.5996C283.978 16.3066 283.649 16.1602 283.233 16.1602C282.349 16.1602 281.783 16.8076 281.537 18.1025H281.203L281.326 15.5361H281.66C281.76 15.7705 281.883 15.8877 282.029 15.8877C282.088 15.8877 282.231 15.8584 282.46 15.7998C283.099 15.624 283.655 15.5361 284.13 15.5361C284.933 15.5361 285.586 15.7207 286.09 16.0898C286.6 16.459 286.854 16.957 286.854 17.584C286.854 18.5859 286.21 19.251 284.921 19.5791Z" fill="white"/>
</svg>
