<svg width="1066" height="205" viewBox="0 0 1066 205" fill="none" xmlns="http://www.w3.org/2000/svg">
<path d="M35.2441 148.643L35.5806 157.046C35.6927 159.943 35.8049 163.227 35.9171 166.898C36.0292 170.181 36.2535 173.272 36.59 176.17C36.9264 179.26 37.375 181.965 37.9358 184.283C38.4966 186.794 39.3377 188.726 40.4593 190.078C40.7957 190.464 41.1883 191.044 41.6369 191.816C41.9733 192.396 42.4219 192.782 42.9827 192.975C43.5435 193.362 44.0482 193.362 44.4968 192.975C45.0575 192.782 45.5622 192.106 46.0108 190.947C47.0202 188.629 47.6371 185.538 47.8614 181.675C48.0857 178.005 48.2539 175.011 48.3661 172.693C48.4782 169.216 48.5343 165.835 48.5343 162.551C48.5343 159.267 48.6464 156.08 48.8708 152.989V130.099C48.8708 127.781 48.9268 125.27 49.039 122.565C49.3754 117.35 49.3754 112.038 49.039 106.629C48.7025 101.413 48.7025 96.0047 49.039 90.4028C49.8241 78.2332 50.2166 66.4499 50.2166 55.053C50.2166 53.3145 50.1605 51.7691 50.0484 50.417L49.7119 46.3604C49.3754 43.0766 49.2633 39.6961 49.3754 36.2191C49.4876 32.742 49.3754 29.3616 49.039 26.0777C48.8147 23.3734 48.5904 20.9588 48.3661 18.8339C48.0296 16.7091 47.2445 15.2603 46.0108 14.4876C45.5622 14.2945 45.1136 14.0047 44.665 13.6184C44.2164 13.0389 43.7117 12.7491 43.1509 12.7491C42.5902 12.5559 42.0294 12.6525 41.4686 13.0389C40.9079 13.232 40.291 14.1013 39.6181 15.6466C38.3844 18.7373 37.6554 22.2144 37.4311 26.0777C37.319 30.1343 37.2629 33.7079 37.2629 36.7986C37.2629 42.5936 37.2068 48.2921 37.0947 53.894L36.59 70.6996C36.3657 72.8245 36.3096 74.8528 36.4217 76.7844C36.646 78.7161 36.59 80.841 36.2535 83.159C35.9171 87.6019 35.8049 91.9482 35.9171 96.1979V108.947L35.7488 116.481C31.487 118.412 28.2346 118.605 25.9915 117.06C23.5241 115.322 21.7297 113.39 20.6081 111.265C19.5988 109.14 18.6455 106.919 17.7482 104.601C16.9632 102.09 16.3463 99.7715 15.8977 97.6466C14.3276 87.0224 13.5425 78.523 13.5425 72.1484C13.5425 66.5465 13.5986 61.0412 13.7107 55.6325C13.935 50.0306 14.0472 44.4287 14.0472 38.8269C14.0472 38.0542 14.1033 36.702 14.2154 34.7703C14.3276 32.6455 14.3836 30.424 14.3836 28.106C14.3836 25.788 14.2715 23.6631 14.0472 21.7314C13.8229 19.7998 13.3743 18.4476 12.7013 17.6749C11.9163 16.7091 11.1873 16.4193 10.5144 16.8057C9.84144 16.9988 9.05637 17.2886 8.15914 17.6749C5.91608 18.8339 4.23378 21.152 3.11225 24.629C2.10287 27.9128 1.48603 31.2933 1.26172 34.7703C1.26172 39.4064 1.09349 44.139 0.757034 48.9682C0.532727 53.6042 0.308421 58.3369 0.0841149 63.1661C-0.0280383 69.7338 -0.0280383 76.3015 0.0841149 82.8693C0.308421 87.8916 0.588804 91.9482 0.925264 95.0389C1.26172 97.9364 1.99072 100.834 3.11225 103.731C4.23378 106.436 5.41139 109.43 6.64508 112.714C7.20584 113.873 7.65445 115.225 7.99091 116.77C8.43953 118.316 8.94422 119.571 9.50498 120.537C11.5237 124.014 13.7668 127.491 16.2342 130.968C18.8137 134.445 21.5054 137.343 24.3092 139.661C28.3467 141.979 31.9356 142.172 35.0759 140.24L35.2441 148.643Z" fill="black"/>
<path d="M212.653 24.0495C212.092 26.3675 211.195 27.8163 209.961 28.3958C208.728 28.7821 207.494 28.9753 206.26 28.9753C205.587 28.9753 204.858 28.9753 204.073 28.9753C203.4 28.7821 202.727 28.7821 202.054 28.9753C200.821 28.9753 199.587 29.1684 198.353 29.5548C197.232 29.9411 196.054 30.1343 194.821 30.1343C192.802 30.1343 190.727 30.1343 188.596 30.1343C186.465 29.9411 184.39 29.9411 182.372 30.1343C181.138 30.5206 179.848 30.8104 178.502 31.0035C177.269 31.1967 176.091 31.7762 174.969 32.7421C173.511 33.9011 172.39 35.4464 171.605 37.3781C170.932 39.3098 170.427 41.5312 170.091 44.0424C169.754 46.3604 169.586 48.775 169.586 51.2862C169.586 53.7974 169.586 56.0188 169.586 57.9505C169.586 61.8139 169.81 65.1943 170.259 68.0919C170.483 70.2167 170.595 72.245 170.595 74.1767C170.708 75.9152 170.764 77.8469 170.764 79.9717C170.876 81.5171 170.988 83.0624 171.1 84.6078C171.324 85.96 171.437 87.4087 171.437 88.9541C172.67 88.9541 173.848 89.1472 174.969 89.5336C176.091 89.7267 177.269 89.9199 178.502 90.1131C182.764 90.8857 186.802 91.1755 190.615 90.9823C192.521 90.9823 194.428 91.1755 196.335 91.5618C198.353 91.755 200.148 91.9482 201.718 92.1413C202.615 92.1413 203.681 93.0106 204.914 94.7491C205.475 95.5218 205.812 96.1979 205.924 96.7774C206.036 97.3569 206.092 98.4193 206.092 99.9647C206.204 101.896 206.092 104.021 205.756 106.339C205.531 108.657 205.083 110.589 204.41 112.134C203.288 114.066 201.886 115.128 200.204 115.322C198.634 115.322 197.176 115.611 195.83 116.191C193.699 117.157 191.68 117.64 189.774 117.64C187.979 117.64 185.96 117.833 183.717 118.219C181.362 118.992 179.175 119.282 177.156 119.088C175.25 118.895 173.287 118.799 171.268 118.799V124.883C171.493 127.974 171.605 131.065 171.605 134.155C171.605 137.053 171.717 140.047 171.941 143.138C171.941 145.456 171.885 147.87 171.773 150.382C171.773 152.7 171.885 155.018 172.11 157.336C172.334 160.62 172.839 162.455 173.624 162.841C174.521 163.227 175.698 163.903 177.156 164.869C178.614 165.642 179.96 166.415 181.194 167.187C182.54 167.767 183.942 168.346 185.4 168.926C186.858 169.505 188.26 169.892 189.605 170.085C191.063 170.085 192.409 170.278 193.643 170.664C194.764 171.051 195.942 171.34 197.176 171.534C198.409 171.727 199.363 172.596 200.036 174.141C200.484 175.493 200.933 177.425 201.382 179.936C201.83 182.254 201.942 183.993 201.718 185.152C201.269 187.277 200.54 189.112 199.531 190.657C198.634 192.009 197.568 192.782 196.335 192.975C194.989 193.362 193.587 193.651 192.129 193.844C190.783 193.844 189.493 193.844 188.26 193.844C187.362 193.844 186.577 193.748 185.904 193.555C185.231 193.362 184.502 193.168 183.717 192.975C182.82 192.782 181.811 192.782 180.689 192.975C179.68 192.975 178.727 192.879 177.829 192.686C174.689 191.72 171.717 190.464 168.913 188.919C166.109 187.18 163.81 183.607 162.016 178.198C161.455 176.073 161.062 173.948 160.838 171.823C160.614 169.698 160.502 167.38 160.502 164.869C160.502 161.779 160.558 158.688 160.67 155.597C160.782 152.313 160.726 149.223 160.502 146.325C160.39 143.234 160.277 140.24 160.165 137.343C160.165 134.252 159.997 131.161 159.661 128.071C159.436 124.4 159.1 120.827 158.651 117.35C158.315 113.873 158.09 110.299 157.978 106.629C157.754 104.311 157.698 102.09 157.81 99.9647C157.922 97.6466 158.034 95.232 158.146 92.7208C158.146 90.4028 158.09 88.1814 157.978 86.0565C157.978 83.7385 157.978 81.3239 157.978 78.8127C157.754 77.2674 157.698 75.6254 157.81 73.8869C157.922 72.1484 157.978 70.4099 157.978 68.6714C158.09 66.3534 158.09 64.1319 157.978 62.0071C157.978 59.689 158.034 57.371 158.146 55.053C158.146 50.417 157.978 45.7809 157.642 41.1449C157.305 36.5088 157.417 32.1625 157.978 28.106C158.09 25.9812 158.483 23.5666 159.156 20.8622C159.941 18.1578 160.782 15.9364 161.679 14.1979C162.801 12.6525 163.922 10.914 165.044 8.98234C166.278 7.05065 167.567 5.60189 168.913 4.63605C169.474 4.24971 170.091 4.05654 170.764 4.05654C171.437 3.86337 172.11 3.76679 172.782 3.76679C173.68 3.38044 174.521 3.18727 175.306 3.18727C176.091 2.99411 176.932 2.80094 177.829 2.60777H182.876C184.11 2.80094 185.288 2.80094 186.409 2.60777C187.531 2.22144 188.708 2.22144 189.942 2.60777C191.624 2.80094 193.25 3.0907 194.821 3.47704C196.503 3.6702 198.129 3.86337 199.699 4.05654C200.709 4.2497 201.886 4.44287 203.232 4.63605C204.578 4.82922 205.868 5.21555 207.101 5.79505C208.447 6.37456 209.625 7.24381 210.634 8.40282C211.756 9.56184 212.485 11.1072 212.821 13.0389C213.045 14.5842 213.158 16.4193 213.158 18.5442C213.158 20.669 212.989 22.5041 212.653 24.0495Z" fill="black"/>
<path d="M381.101 33.6113C381.998 38.8269 381.83 43.9458 380.596 48.9682C379.475 53.7974 377.792 58.53 375.549 63.1661C373.082 68.9611 370.166 73.7903 366.801 77.6537C363.549 81.3239 360.184 84.5112 356.708 87.2155C354.352 88.9541 351.997 90.4028 349.642 91.5618C347.287 92.7208 344.875 93.8799 342.408 95.0389C340.501 96.0047 338.595 96.7774 336.688 97.3569C334.894 97.7432 333.043 98.2261 331.137 98.8056C330.576 101.51 330.464 104.408 330.8 107.498C331.137 110.396 331.417 112.907 331.641 115.032C331.978 118.316 332.034 121.793 331.81 125.463C331.697 128.94 331.697 132.417 331.81 135.894C331.922 138.792 332.034 141.303 332.146 143.428C332.37 145.359 332.539 147.291 332.651 149.223C332.763 150.961 332.875 152.893 332.987 155.018C333.099 156.949 333.155 159.364 333.155 162.261C333.38 164.386 333.604 166.415 333.828 168.346C334.053 170.085 334.277 171.92 334.501 173.852C334.613 175.976 334.389 178.005 333.828 179.936C333.38 181.868 332.763 183.896 331.978 186.021C330.968 188.726 329.847 190.174 328.613 190.367C327.38 190.561 326.258 189.981 325.249 188.629C324.239 187.277 323.342 185.538 322.557 183.413C321.772 181.095 321.323 178.971 321.211 177.039C320.987 174.914 320.762 172.982 320.538 171.244C320.426 169.312 320.258 167.477 320.033 165.739C319.921 164 319.865 162.648 319.865 161.682C319.865 160.716 319.865 159.847 319.865 159.074C319.865 158.108 319.865 157.143 319.865 156.177C319.977 155.211 320.033 153.859 320.033 152.12C320.033 149.995 319.921 147.967 319.697 146.035C319.585 143.91 319.417 141.786 319.192 139.661C318.968 137.15 318.8 134.735 318.688 132.417C318.575 129.906 318.463 127.395 318.351 124.883C318.351 122.179 318.407 119.571 318.519 117.06C318.632 114.356 318.575 111.748 318.351 109.237C318.015 104.021 317.734 98.9022 317.51 93.8799C317.398 88.6643 317.454 83.3522 317.678 77.9435C317.678 73.8869 317.454 70.0236 317.005 66.3533C316.669 62.49 316.557 58.6266 316.669 54.7632C316.669 52.4452 316.669 50.1272 316.669 47.8092C316.781 45.298 317.005 42.98 317.342 40.8551C317.678 38.5371 318.239 36.3157 319.024 34.1908C319.921 32.066 320.65 29.9411 321.211 27.8163C322.108 24.3392 323.118 21.4417 324.239 19.1237C325.361 16.6125 326.931 14.2945 328.95 12.1696C330.856 10.0448 332.819 8.40283 334.838 7.24383C336.969 6.08481 339.043 5.02238 341.062 4.05654C343.642 2.89753 346.333 1.93169 349.137 1.15901C351.941 0.386338 354.633 0 357.212 0C359.792 0 362.259 0.482921 364.614 1.44876C366.97 2.4146 369.157 4.2497 371.175 6.95406C372.409 8.88574 373.587 11.1072 374.708 13.6184C375.942 15.9364 377.063 18.351 378.073 20.8622C378.746 22.7939 379.363 24.8221 379.923 26.947C380.484 29.0719 380.877 31.2933 381.101 33.6113ZM363.605 55.6325C364.839 53.3145 365.624 50.8033 365.96 48.0989C366.409 45.3946 366.633 42.6902 366.633 39.9859C366.633 36.5088 366.465 33.8045 366.128 31.8728C365.904 29.7479 365.119 27.4299 363.773 24.9187C362.652 22.7939 361.418 21.828 360.072 22.0212C358.838 22.2144 357.324 22.5041 355.53 22.8905C353.736 23.2768 351.997 23.6631 350.315 24.0495C348.633 24.2426 346.894 24.8221 345.1 25.788C343.53 26.5607 341.679 27.9128 339.548 29.8445C337.417 31.7762 335.735 33.8045 334.501 35.9293C333.492 37.861 332.763 40.179 332.314 42.8834C331.866 45.5877 331.529 48.1955 331.305 50.7067C331.305 53.2179 331.249 55.7291 331.137 58.2403C331.137 60.7515 331.137 63.2627 331.137 65.7738C331.137 67.3192 331.137 69.2509 331.137 71.5689C331.137 73.6937 331.025 75.2391 330.8 76.2049C332.482 75.6254 334.165 75.1425 335.847 74.7562C337.642 74.1767 339.436 73.5006 341.23 72.7279C343.137 71.9552 345.1 70.9894 347.118 69.8304C349.137 68.6714 351.156 67.4158 353.175 66.0636C355.081 65.0978 356.876 63.8422 358.558 62.2968C360.353 60.5583 362.035 58.3369 363.605 55.6325Z" fill="black"/>
<path d="M549.183 21.7314C548.735 26.3675 548.51 31.0035 548.51 35.6396C548.623 40.2756 548.679 45.0082 548.679 49.8374C548.679 51.9623 548.679 54.2803 548.679 56.7915C548.679 59.1095 548.567 61.4276 548.342 63.7456C548.23 67.9953 548.286 72.245 548.51 76.4947C548.735 80.7444 548.847 84.9941 548.847 89.2438C548.735 91.5618 548.679 93.7833 548.679 95.9081C548.679 97.8398 548.679 99.8681 548.679 101.993C548.454 104.697 548.118 107.305 547.669 109.816C547.333 112.327 547.109 114.935 546.996 117.64C546.884 123.241 546.772 128.843 546.66 134.445C546.548 140.047 546.492 145.649 546.492 151.251C546.492 154.535 546.492 157.819 546.492 161.102C546.604 164.193 546.772 167.38 546.996 170.664C547.109 173.369 547.165 176.073 547.165 178.777C547.277 181.482 547.165 184.186 546.828 186.89C546.604 189.402 546.604 191.72 546.828 193.844C547.165 195.776 546.884 197.611 545.987 199.35C545.538 200.316 544.809 201.281 543.8 202.247C542.903 203.406 542.174 204.082 541.613 204.276C541.164 204.662 540.492 204.855 539.594 204.855C538.697 205.048 538.024 205.048 537.576 204.855C536.454 203.889 535.501 202.344 534.716 200.219C533.931 198.287 533.37 196.259 533.033 194.134C532.473 192.009 532.248 189.305 532.36 186.021C532.473 182.737 532.529 180.033 532.529 177.908C532.641 174.238 532.641 170.664 532.529 167.187C532.417 163.71 532.417 160.04 532.529 156.177C532.529 152.12 532.697 148.064 533.033 144.007C533.37 139.757 533.538 135.508 533.538 131.258C533.538 129.133 533.426 126.912 533.202 124.594C533.089 122.276 532.921 120.054 532.697 117.929C532.697 115.804 532.753 113.68 532.865 111.555C532.977 109.43 533.089 107.305 533.202 105.18C532.641 105.567 532.024 105.76 531.351 105.76C530.678 105.76 530.061 105.856 529.5 106.049C527.145 106.629 524.734 107.208 522.267 107.788C519.911 108.174 517.556 108.657 515.201 109.237C512.734 110.203 510.322 111.362 507.967 112.714C505.724 113.873 503.425 115.225 501.07 116.77C500.733 118.895 500.733 121.02 501.07 123.145C501.07 127.201 501.182 131.258 501.406 135.314C501.63 139.178 501.799 143.138 501.911 147.194C501.911 150.478 502.023 153.665 502.247 156.756C502.584 159.847 502.808 163.034 502.92 166.318C503.032 170.954 503.201 174.914 503.425 178.198C503.761 181.289 503.874 183.993 503.761 186.311C503.649 188.629 503.257 190.657 502.584 192.396C502.023 193.941 500.901 195.39 499.219 196.742C497.537 199.06 496.247 200.219 495.35 200.219C494.453 200.219 493.724 199.446 493.163 197.901C492.714 196.356 492.378 194.424 492.154 192.106C491.929 189.595 491.649 186.987 491.312 184.283C490.415 176.556 489.63 169.119 488.957 161.972C488.284 154.631 487.948 146.905 487.948 138.792C487.948 134.928 487.78 131.161 487.443 127.491C487.219 123.628 486.995 119.764 486.77 115.901C486.658 110.299 486.658 104.697 486.77 99.0954C486.995 93.4935 486.995 88.0848 486.77 82.8693C486.77 78.2332 486.882 73.6938 487.107 69.2509C487.443 64.6148 487.611 59.8822 487.611 55.053C487.387 47.5194 487.667 40.179 488.452 33.0318C489.238 25.8846 490.191 18.7373 491.312 11.5901C491.537 10.0448 491.817 8.20966 492.154 6.08481C492.602 3.76679 493.219 2.12485 494.004 1.15901C494.677 0.386338 495.406 0.289755 496.191 0.869264C496.976 1.2556 497.705 2.12485 498.378 3.47704C499.051 4.63605 499.612 5.98822 500.06 7.53357C500.621 8.88575 501.014 10.0448 501.238 11.0106C501.799 13.1355 502.079 15.8398 502.079 19.1237C502.191 22.2144 502.135 24.9187 501.911 27.2367C501.687 29.7479 501.518 32.2591 501.406 34.7703C501.294 37.0883 501.238 39.5029 501.238 42.0141C501.238 44.5253 501.294 47.0365 501.406 49.5477C501.518 51.8657 501.574 54.2803 501.574 56.7915C501.574 62.3934 501.518 68.0919 501.406 73.8869C501.294 79.682 501.182 85.3804 501.07 90.9823C501.967 90.4028 502.808 89.9199 503.593 89.5336C504.378 88.9541 505.051 88.4711 505.612 88.0848C507.182 87.3121 508.808 86.5395 510.491 85.7668C512.173 84.9941 513.855 84.4146 515.537 84.0283C516.771 83.6419 518.061 83.5453 519.407 83.7385C520.753 83.7385 522.042 83.5453 523.276 83.159C524.398 82.9658 525.519 82.7727 526.641 82.5795C527.762 82.1932 528.94 82 530.173 82C530.846 82 531.519 82.0966 532.192 82.2897C532.977 82.4829 533.65 82.7727 534.211 83.159C534.323 81.6137 534.379 80.0683 534.379 78.523C534.379 76.9776 534.379 75.4323 534.379 73.8869C534.604 70.9894 534.716 68.0919 534.716 65.1943C534.828 62.2968 534.996 59.4959 535.22 56.7915C535.445 53.3145 535.501 49.7409 535.389 46.0707C535.389 42.2073 535.445 38.4405 535.557 34.7703C535.669 30.9069 535.949 27.2368 536.398 23.7597C536.847 20.0895 537.632 16.7091 538.753 13.6184C538.977 13.0389 539.314 12.1696 539.763 11.0106C540.323 9.65842 540.884 8.40283 541.445 7.24383C542.006 5.89164 542.566 4.82921 543.127 4.05654C543.8 3.0907 544.361 2.60777 544.809 2.60777C545.595 2.60777 546.436 3.76679 547.333 6.08481C548.342 8.20966 548.959 9.75501 549.183 10.7208C549.52 12.2662 549.632 14.1013 549.52 16.2261C549.408 18.1578 549.296 19.9929 549.183 21.7314Z" fill="black"/>
<path d="M722.026 152.989C722.026 155.114 721.858 158.688 721.522 163.71C721.297 168.539 720.849 173.369 720.176 178.198C719.503 183.027 718.494 187.084 717.148 190.367C715.914 193.651 714.232 194.81 712.101 193.844C710.867 193.265 709.97 192.106 709.409 190.367C708.848 188.629 708.456 186.794 708.232 184.862C708.119 182.737 708.119 180.612 708.232 178.488C708.456 176.363 708.624 174.528 708.736 172.982C708.961 167.574 709.017 162.358 708.904 157.336C708.792 152.12 708.848 147.001 709.073 141.979V130.099V106.629C709.073 103.538 709.017 99.9647 708.904 95.9081C708.792 91.6584 708.624 87.4087 708.4 83.159C708.288 78.7161 708.119 74.4664 707.895 70.4099C707.671 66.3534 707.39 62.7797 707.054 59.689C706.605 61.6207 706.045 63.9388 705.372 66.6431C704.811 69.1543 704.25 71.7621 703.689 74.4664C703.129 77.1708 702.568 79.7786 702.007 82.2897C701.558 84.8009 701.222 86.9258 700.998 88.6643C700.437 92.7208 699.708 96.5842 698.811 100.254C697.913 103.731 697.128 107.402 696.455 111.265C695.558 116.287 694.829 121.406 694.268 126.622C693.82 131.644 692.979 136.377 691.745 140.82C689.502 148.933 686.979 156.273 684.175 162.841C681.483 169.216 678.96 175.59 676.604 181.965C675.483 185.055 674.137 188.436 672.567 192.106C670.997 195.583 669.034 197.804 666.679 198.77C662.193 200.895 659.894 197.901 659.781 189.788C659.557 180.709 659.781 171.63 660.454 162.551C661.127 153.279 661.352 144.007 661.127 134.735C660.903 128.167 660.735 121.6 660.622 115.032C660.622 108.271 660.51 101.51 660.286 94.7491C660.062 87.4087 660.286 80.0683 660.959 72.7279C661.632 65.3875 662.081 58.0471 662.305 50.7067C662.305 48.1955 662.473 45.6843 662.81 43.1731C663.146 40.4688 663.37 37.9576 663.482 35.6396C663.707 32.9352 663.819 30.2309 663.819 27.5265C663.819 24.8221 663.875 22.0212 663.987 19.1237C663.987 17.5783 664.099 15.7432 664.324 13.6184C664.66 11.4935 665.109 9.65842 665.669 8.11307C666.23 6.37456 666.959 5.31213 667.856 4.9258C668.754 4.53946 669.819 5.31213 671.053 7.24383C672.959 10.5277 674.193 14.1979 674.754 18.2544C675.315 22.1178 675.539 26.2709 675.427 30.7138C675.202 36.3157 674.978 41.9176 674.754 47.5194C674.529 53.1213 674.417 58.8198 674.417 64.6148C674.417 67.8987 674.305 71.1826 674.081 74.4664C673.857 77.5571 673.744 80.7444 673.744 84.0283V107.788V127.201C673.52 129.713 673.464 132.514 673.576 135.604C673.688 138.695 673.52 141.399 673.072 143.717C674.642 141.206 675.931 138.405 676.941 135.314C677.95 132.224 679.072 129.133 680.305 126.042C682.548 120.054 683.95 114.356 684.511 108.947C685.184 103.538 686.025 98.9022 687.035 95.0389C689.053 86.9258 690.792 79.2956 692.25 72.1484C693.82 64.808 695.222 56.7915 696.455 48.0989C697.016 44.2356 697.633 41.0483 698.306 38.5371C699.091 36.0259 699.876 33.4181 700.661 30.7138C701.11 28.9753 701.727 27.0436 702.512 24.9187C703.409 22.7939 704.418 20.9588 705.54 19.4134C706.661 17.6749 707.839 16.4193 709.073 15.6466C710.306 14.6808 711.54 14.6808 712.774 15.6466C713.671 16.2261 714.288 16.7091 714.624 17.0954C714.961 17.2886 715.241 17.5783 715.465 17.9647C715.69 18.1578 715.914 18.6408 716.138 19.4134C716.363 19.9929 716.755 20.8622 717.316 22.0212C718.101 23.5665 718.662 25.4982 718.998 27.8163C719.335 30.1343 719.559 32.6455 719.671 35.3498C719.783 37.861 719.839 40.4688 719.839 43.1731C719.839 45.6843 719.839 47.9058 719.839 49.8374C719.839 59.4959 719.952 68.8645 720.176 77.9435C720.512 87.0224 720.681 96.2945 720.681 105.76C720.681 111.362 720.737 116.77 720.849 121.986C721.073 127.201 721.297 132.514 721.522 137.922C721.522 140.627 721.634 143.234 721.858 145.746C722.082 148.064 722.139 150.478 722.026 152.989Z" fill="black"/>
<path d="M899.58 186.311C899.243 189.595 898.795 191.623 898.234 192.396C897.785 193.168 896.664 194.038 894.869 195.004C893.411 195.583 892.122 195.776 891 195.583C889.991 195.583 889.262 194.327 888.813 191.816C888.364 189.498 887.635 186.214 886.626 181.965C885.729 177.715 884.719 173.369 883.598 168.926C882.589 164.29 881.467 160.04 880.233 156.177C879.112 152.12 878.159 149.319 877.373 147.774C876.476 146.035 875.579 144.393 874.682 142.848C873.897 141.11 873.055 139.468 872.158 137.922C871.261 136.377 870.476 134.928 869.803 133.576C869.13 132.224 868.289 130.968 867.28 129.809C866.27 128.264 865.261 127.008 864.252 126.042C863.242 125.077 862.233 123.821 861.223 122.276C859.99 120.537 858.644 118.799 857.186 117.06C855.84 115.128 854.382 113.486 852.812 112.134C851.915 111.362 851.017 110.782 850.12 110.396C849.335 109.816 848.494 109.237 847.597 108.657C847.148 111.748 846.924 115.515 846.924 119.958V146.325C847.036 152.313 847.316 158.495 847.765 164.869C848.214 171.051 848.83 177.039 849.615 182.834C849.84 184.186 849.784 185.828 849.447 187.76C849.223 189.691 848.774 191.43 848.101 192.975C847.541 194.521 846.812 195.776 845.914 196.742C845.017 197.901 844.064 198.287 843.055 197.901C841.933 197.322 840.755 196.356 839.522 195.004C838.288 193.651 837.335 192.203 836.662 190.657C835.765 188.532 835.316 186.118 835.316 183.413C835.428 180.516 835.316 177.812 834.979 175.3C834.867 174.141 834.699 173.079 834.475 172.113C834.363 170.954 834.251 169.698 834.138 168.346C833.914 167.187 833.746 165.352 833.634 162.841C833.521 160.137 833.409 157.336 833.297 154.438C833.297 151.541 833.297 148.74 833.297 146.035C833.297 143.331 833.297 141.399 833.297 140.24C833.297 138.888 833.241 137.633 833.129 136.473C833.129 135.121 833.129 133.866 833.129 132.707C833.129 131.355 833.129 130.099 833.129 128.94C833.129 127.781 833.185 126.525 833.297 125.173C833.522 122.082 833.69 119.088 833.802 116.191C834.026 113.293 834.25 110.299 834.475 107.208C834.699 103.731 834.867 100.351 834.979 97.0671C835.204 93.7833 835.372 90.4028 835.484 86.9258C835.484 83.0624 835.484 79.1025 835.484 75.0459C835.596 70.9894 835.765 67.0294 835.989 63.1661C836.213 59.3027 836.325 55.4393 836.325 51.576C836.438 47.5194 836.494 43.5595 836.494 39.6961V24.0495C836.269 22.311 836.494 20.4759 837.167 18.5442C837.839 16.6125 838.625 14.9706 839.522 13.6184C840.419 11.8799 841.316 11.3969 842.213 12.1696C843.111 12.9423 844.008 14.1013 844.905 15.6466C845.354 16.6125 845.634 17.5783 845.746 18.5442C845.971 19.3168 846.195 20.1861 846.419 21.1519C846.531 22.1178 846.7 23.0836 846.924 24.0495C847.26 25.0153 847.541 26.0777 847.765 27.2367C848.326 30.1343 848.662 32.9352 848.774 35.6396C848.887 38.1508 849.055 40.9517 849.279 44.0424C849.391 47.5194 849.335 51.093 849.111 54.7632C848.999 58.2403 848.887 61.7173 848.774 65.1943C848.55 68.285 848.494 71.3757 848.606 74.4664C848.718 77.5571 848.774 80.6478 848.774 83.7385C850.681 79.8752 852.588 76.1084 854.494 72.4382C856.401 68.768 858.139 64.9046 859.709 60.8481C861.055 57.371 862.513 53.9906 864.083 50.7067C865.653 47.2297 867.167 43.6561 868.625 39.9859C869.411 38.0542 870.14 36.1225 870.812 34.1908C871.598 32.2591 872.439 30.424 873.336 28.6855C874.345 26.7538 875.467 24.3392 876.701 21.4417C878.046 18.5442 879.448 15.8398 880.906 13.3286C882.476 10.8174 884.103 8.88575 885.785 7.53357C887.467 6.18139 889.262 5.98822 891.168 6.95406C892.402 7.53357 893.075 8.98234 893.187 11.3004C893.411 13.6184 893.355 15.7432 893.019 17.6749C892.458 20.7656 891.561 23.47 890.327 25.788C889.093 28.106 887.86 30.5206 886.626 33.0318C885.056 35.9293 883.486 38.8269 881.916 41.7244C880.345 44.4287 878.944 47.4228 877.71 50.7067C876.252 54.1837 874.738 57.7574 873.168 61.4276C871.597 64.9046 870.027 68.3816 868.457 71.8587C867.672 73.7903 866.999 75.6254 866.438 77.364C865.99 79.1025 865.373 80.9376 864.588 82.8693C863.915 84.4146 863.522 85.1873 863.41 85.1873C863.41 85.1873 863.242 86.1531 862.906 88.0848C864.924 90.2096 866.775 92.0448 868.457 93.5901C870.14 94.9423 871.934 96.874 873.841 99.3852C874.401 100.351 874.906 101.317 875.355 102.283C875.915 103.055 876.532 103.828 877.205 104.601C877.878 105.567 878.607 106.436 879.392 107.208C880.177 107.788 880.906 108.561 881.579 109.526C882.813 111.458 884.047 114.259 885.28 117.929C886.514 121.6 887.635 124.497 888.645 126.622C889.654 128.747 890.832 132.514 892.178 137.922C893.523 143.331 894.757 149.126 895.879 155.307C897.112 161.489 898.066 167.477 898.739 173.272C899.524 179.067 899.804 183.413 899.58 186.311Z" fill="black"/>
<path d="M1065.26 178.488C1065.6 181.578 1065.82 184.669 1065.93 187.76C1066.16 190.85 1065.82 193.748 1064.92 196.452C1064.14 199.157 1062.96 200.702 1061.39 201.088C1059.93 201.475 1058.36 200.605 1056.68 198.481C1056.12 197.708 1055.67 196.356 1055.33 194.424C1055 192.299 1054.72 190.464 1054.49 188.919C1054.27 187.18 1054.16 185.442 1054.16 183.703C1054.16 181.771 1053.99 180.033 1053.65 178.488C1053.09 175.204 1052.64 171.92 1052.31 168.636C1052.08 165.352 1051.69 162.165 1051.13 159.074C1050.46 155.984 1050.01 153.183 1049.78 150.671C1049.56 148.16 1049.33 145.263 1049.11 141.979C1049.11 140.433 1049 139.081 1048.77 137.922C1048.66 136.57 1048.49 135.218 1048.27 133.866C1044.01 134.832 1039.52 135.991 1034.81 137.343C1030.21 138.695 1025.39 138.985 1020.34 138.212C1019.45 144.78 1018.49 150.768 1017.48 156.177C1016.59 161.585 1016.02 167.67 1015.8 174.431C1015.69 177.715 1015.69 180.999 1015.8 184.283C1015.91 187.373 1015.52 190.367 1014.62 193.265C1013.73 196.549 1012.55 198.191 1011.09 198.191C1009.63 198.384 1008.29 197.032 1007.05 194.134C1004.58 187.953 1003.18 181.578 1002.85 175.011C1002.62 168.443 1002.79 161.489 1003.35 154.148C1003.8 150.285 1004.53 146.711 1005.54 143.428C1006.55 140.144 1007.28 136.667 1007.73 132.996C1008.17 129.326 1008.57 125.656 1008.9 121.986C1009.24 118.316 1009.69 114.645 1010.25 110.975C1010.81 107.305 1011.09 103.635 1011.09 99.9647C1011.2 96.1013 1011.54 92.2379 1012.1 88.3745C1012.55 85.0907 1012.77 81.6137 1012.77 77.9435C1012.88 74.0801 1013.11 70.3133 1013.45 66.6431C1013.67 63.1661 1014.17 59.7856 1014.96 56.5018C1015.74 53.2179 1016.25 49.8375 1016.47 46.3604C1016.81 42.8834 1017.2 39.1166 1017.65 35.0601C1018.1 31.0035 1018.77 27.1402 1019.67 23.47C1020.57 19.6066 1021.69 16.3227 1023.03 13.6184C1024.49 10.7208 1026.34 8.78916 1028.59 7.82332C1029.03 7.63016 1029.65 7.43699 1030.44 7.24383C1031.22 7.05065 1032.06 6.95406 1032.96 6.95406C1033.86 6.95406 1034.7 7.05065 1035.48 7.24383C1036.27 7.43699 1036.83 7.72674 1037.17 8.11307C1037.39 8.30624 1037.67 8.88574 1038.01 9.85158C1038.46 10.8174 1038.9 11.9764 1039.35 13.3286C1039.8 14.6808 1040.19 15.9364 1040.53 17.0954C1040.87 18.2544 1041.15 19.0271 1041.37 19.4134C1041.82 20.3793 1042.27 21.5383 1042.72 22.8905C1043.17 24.0495 1043.5 25.3051 1043.73 26.6572C1044.06 28.2026 1044.18 29.7479 1044.06 31.2933C1044.06 32.6455 1044.17 34.0942 1044.4 35.6396C1044.96 41.2415 1045.86 47.1331 1047.09 53.3145C1048.32 59.3027 1049.61 65.0978 1050.96 70.6996C1051.52 73.7903 1052.31 76.7844 1053.32 79.682C1054.44 82.3863 1055.39 85.2839 1056.18 88.3745C1056.74 91.6584 1057.24 94.9423 1057.69 98.2261C1058.25 101.51 1058.92 104.697 1059.71 107.788C1060.27 110.492 1061 113.004 1061.9 115.322C1062.9 117.64 1063.47 120.054 1063.58 122.565C1063.8 125.849 1063.58 129.036 1062.9 132.127C1062.34 135.218 1062.18 138.405 1062.4 141.689C1062.62 150.575 1063.07 157.915 1063.75 163.71C1064.53 169.312 1065.04 174.238 1065.26 178.488ZM1021.86 110.396C1025.78 110.396 1029.76 110.203 1033.8 109.816C1037.84 109.237 1041.99 109.14 1046.25 109.526C1045.46 105.084 1044.57 101.027 1043.56 97.3569C1042.66 93.4935 1041.76 89.437 1040.87 85.1873C1039.97 82.0966 1039.35 79.1025 1039.02 76.2049C1038.68 73.3074 1038.06 70.4099 1037.17 67.5124C1036.72 66.3534 1036.21 64.7114 1035.65 62.5866C1035.09 60.4617 1034.53 58.2403 1033.97 55.9223C1033.41 53.6042 1032.85 51.3828 1032.29 49.2579C1031.84 47.1331 1031.5 45.4912 1031.28 44.3321C1030.94 46.2638 1030.49 48.775 1029.93 51.8657C1029.48 54.7632 1028.92 57.8539 1028.25 61.1378C1027.69 64.2285 1027.13 67.3192 1026.57 70.4099C1026.01 73.3074 1025.56 75.722 1025.22 77.6537C1024.55 80.9376 1024.04 84.318 1023.71 87.7951C1023.48 91.0789 1023.26 94.4594 1023.03 97.9364C1022.81 100.061 1022.59 102.09 1022.36 104.021C1022.14 105.953 1021.97 108.078 1021.86 110.396Z" fill="black"/>
</svg>
